<?xml version="1.0" encoding="UTF-8"?>
<svg width="20px" height="13px" viewBox="0 0 20 13" version="1.1" xmlns="http://www.w3.org/2000/svg" xmlns:xlink="http://www.w3.org/1999/xlink">
    <!-- Generator: Sketch 50 (54983) - http://www.bohemiancoding.com/sketch -->
    <title>Shape</title>
    <desc>Created with Sketch.</desc>
    <defs></defs>
    <g id="Design:-TM-Universal-Log-In--+-PP-login" stroke="none" stroke-width="1" fill="none" fill-rule="evenodd">
        <g id="Web_Signup" transform="translate(-100.000000, -299.000000)" fill="#C1C1C1" fill-rule="nonzero">
            <g id="Group-10">
                <g id="Group-3" transform="translate(90.000000, 261.000000)">
                    <g id="Group" transform="translate(0.000000, 23.000000)">
                        <path d="M28.8,15 L11.2,15 C10.52,15 10,15.5121212 10,16.1818182 L10,26.8181818 C10,27.4878788 10.52,28 11.2,28 L28.8,28 C29.48,28 30,27.4878788 30,26.8181818 L30,16.1818182 C30,15.5121212 29.48,15 28.8,15 Z M20,22.0121212 L11.48,15.7878788 L28.52,15.7878788 L20,22.0121212 Z M16.84,20.6727273 L10.8,26.6606061 L10.8,16.2606061 L16.84,20.6727273 Z M17.52,21.1454545 L20,22.9575758 L22.48,21.1454545 L28.64,27.2121212 L11.36,27.2121212 L17.52,21.1454545 Z M23.16,20.6727273 L29.2,16.2606061 L29.2,26.6212121 L23.16,20.6727273 Z" id="Shape"></path>
                    </g>
                </g>
            </g>
        </g>
    </g>
</svg>