<?xml version="1.0" encoding="UTF-8"?>
<svg width="13px" height="12px" viewBox="0 0 13 12" version="1.1" xmlns="http://www.w3.org/2000/svg" xmlns:xlink="http://www.w3.org/1999/xlink">
    <!-- Generator: Sketch 50 (54983) - http://www.bohemiancoding.com/sketch -->
    <title>Group 10</title>
    <desc>Created with Sketch.</desc>
    <defs></defs>
    <g id="Design:-TM-Universal-Log-In--+-PP-login" stroke="none" stroke-width="1" fill="none" fill-rule="evenodd">
        <g id="TM-UNI-Sign-Up-1.2" transform="translate(-384.000000, -386.000000)">
            <g id="Group-13">
                <g id="Group-10" transform="translate(384.000000, 387.000000)">
                    <path d="M6.5,0 C9.832875,0 13,3.87333333 13,5 C13,6.12666667 9.832875,10 6.5,10 C3.167125,10 0,6.12666667 0,5 C0,3.87333333 3.167125,0 6.5,0 Z M6.5,8.33333333 C8.2948125,8.33333333 9.75,6.84083333 9.75,5 C9.75,3.15916667 8.2948125,1.66666667 6.5,1.66666667 C4.7051875,1.66666667 3.25,3.15916667 3.25,5 C3.25,6.84083333 4.7051875,8.33333333 6.5,8.33333333 Z M6.5,3.33333333 C7.397,3.33333333 8.125,4.08 8.125,5 C8.125,5.92 7.397,6.66666667 6.5,6.66666667 C5.603,6.66666667 4.875,5.92 4.875,5 C5.772,5 6.5,4.25333333 6.5,3.33333333 Z" id="Combined-Shape" fill="#C1C1C1"></path>
                    <path d="M1,10 L12,0" id="Line-2" stroke="#C1C1C1" stroke-width="2" stroke-linecap="round"></path>
                </g>
            </g>
        </g>
    </g>
</svg>