<?xml version="1.0" encoding="UTF-8"?>
<svg width="17px" height="21px" viewBox="0 0 17 21" version="1.1" xmlns="http://www.w3.org/2000/svg" xmlns:xlink="http://www.w3.org/1999/xlink">
    <!-- Generator: Sketch 50 (54983) - http://www.bohemiancoding.com/sketch -->
    <title>PassworkLock</title>
    <desc>Created with Sketch.</desc>
    <defs></defs>
    <g id="Design:-TM-Universal-Log-In--+-PP-login" stroke="none" stroke-width="1" fill="none" fill-rule="evenodd">
        <g id="Web_Signup" transform="translate(-102.000000, -379.000000)" stroke="#C1C1C1">
            <g id="Group-10">
                <g id="Group-6" transform="translate(90.000000, 346.000000)">
                    <g id="PassworkLock" transform="translate(13.000000, 34.000000)">
                        <g id="Group-26-Copy-3">
                            <path d="M4,9 L11,9 L11,5.26674102 C11,3.47397171 9.44544094,2 7.49993809,2 C5.55446685,2 4,3.47394032 4,5.26674102 L4,9 Z M2,9 L2,5.26674102 C2,2.34487923 4.47298821,0 7.49993809,0 C10.5269036,0 13,2.34489265 13,5.26674102 L13,9 L13.4784478,9 C14.3058379,9 14.9761813,9.63928646 14.9761813,10.428577 L14.9761813,17.5715016 C14.9761813,18.3607529 14.3058379,19 13.4784478,19 L1.4976511,19 C0.67021978,19 0,18.3607529 0,17.5715016 L0,10.428577 C0,9.63928646 0.67021978,9 1.4976511,9 L2,9 Z" id="Combined-Shape" stroke-width="0.8" fill-rule="nonzero"></path>
                            <path d="M5.99043956,12.5746164 C5.99043956,11.7494932 6.66061813,11.0811507 7.48804945,11.0811507 C8.31548077,11.0811507 8.98561813,11.7494932 8.98561813,12.5746164 C8.98561813,13.101137 8.71223901,13.5641644 8.30052198,13.8292329 C8.30052198,13.8292329 8.44681319,14.7105753 8.61131868,15.7483699 C8.61131868,16.0581507 8.36048077,16.3083014 8.04968407,16.3083014 L6.92641484,16.3083014 C6.61565934,16.3083014 6.36486264,16.0581507 6.36486264,15.7483699 L6.67565934,13.8292329 C6.2639011,13.5641644 5.99043956,13.1010959 5.99043956,12.5746164 Z" id="Path" stroke-width="0.8"></path>
                        </g>
                    </g>
                </g>
            </g>
        </g>
    </g>
</svg>