<?xml version="1.0" encoding="UTF-8"?>
<svg width="13px" height="10px" viewBox="0 0 13 10" version="1.1" xmlns="http://www.w3.org/2000/svg" xmlns:xlink="http://www.w3.org/1999/xlink">
    <!-- Generator: Sketch 50 (54983) - http://www.bohemiancoding.com/sketch -->
    <title>Combined Shape</title>
    <desc>Created with Sketch.</desc>
    <defs></defs>
    <g id="Design:-TM-Universal-Log-In--+-PP-login" stroke="none" stroke-width="1" fill="none" fill-rule="evenodd">
        <g id="TM-UNI-Sign-Up-1.4" transform="translate(-384.000000, -387.000000)" fill="#C1C1C1">
            <g id="Group-11">
                <g id="Group-10" transform="translate(346.000000, 383.000000)">
                    <path d="M44.5,4 C47.832875,4 51,7.87333333 51,9 C51,10.1266667 47.832875,14 44.5,14 C41.167125,14 38,10.1266667 38,9 C38,7.87333333 41.167125,4 44.5,4 Z M44.5,12.3333333 C46.2948125,12.3333333 47.75,10.8408333 47.75,9 C47.75,7.15916667 46.2948125,5.66666667 44.5,5.66666667 C42.7051875,5.66666667 41.25,7.15916667 41.25,9 C41.25,10.8408333 42.7051875,12.3333333 44.5,12.3333333 Z M44.5,7.33333333 C45.397,7.33333333 46.125,8.08 46.125,9 C46.125,9.92 45.397,10.6666667 44.5,10.6666667 C43.603,10.6666667 42.875,9.92 42.875,9 C43.772,9 44.5,8.25333333 44.5,7.33333333 Z" id="Combined-Shape"></path>
                </g>
            </g>
        </g>
    </g>
</svg>